<svg width="46" height="47" viewBox="0 0 46 47" fill="none" xmlns="http://www.w3.org/2000/svg">
<path d="M42.9474 39.2727H15.1579C13.7684 39.2727 12.5794 38.8458 11.5907 37.992C10.6004 37.1367 10.1053 36.1091 10.1053 34.9091V4.36364C10.1053 3.16364 10.6004 2.136 11.5907 1.28073C12.5794 0.426909 13.7684 0 15.1579 0H30.7579C31.4316 0 32.0741 0.109091 32.6855 0.327273C33.2952 0.545455 33.8316 0.854546 34.2947 1.25455L46.5474 11.8364C47.0105 12.2364 47.3684 12.6996 47.6211 13.2262C47.8737 13.7542 48 14.3091 48 14.8909V34.9091C48 36.1091 47.5057 37.1367 46.5171 37.992C45.5267 38.8458 44.3368 39.2727 42.9474 39.2727ZM5.05263 48C3.66316 48 2.47411 47.5731 1.48547 46.7193C0.495158 45.864 0 44.8364 0 43.6364V15.2727C0 14.6545 0.242527 14.136 0.727579 13.7171C1.21095 13.2996 1.81053 13.0909 2.52632 13.0909C3.24211 13.0909 3.84253 13.2996 4.32758 13.7171C4.81095 14.136 5.05263 14.6545 5.05263 15.2727V43.6364H30.3158C31.0316 43.6364 31.632 43.8458 32.1171 44.2647C32.6004 44.6822 32.8421 45.2 32.8421 45.8182C32.8421 46.4364 32.6004 46.9542 32.1171 47.3716C31.632 47.7905 31.0316 48 30.3158 48H5.05263ZM32.8421 15.2727H42.9474L30.3158 4.36364V13.0909C30.3158 13.7091 30.5583 14.2276 31.0434 14.6465C31.5267 15.064 32.1263 15.2727 32.8421 15.2727Z" fill="#02292C"/>
</svg>
