<svg width="48" height="48" viewBox="0 0 48 48" fill="none" xmlns="http://www.w3.org/2000/svg">
<path d="M45.3002 48C39.0608 48 33.1917 46.82 27.693 44.46C22.1927 42.1 17.3931 38.8704 13.2943 34.7712C9.19386 30.6704 5.95415 25.8704 3.57517 20.3712C1.19458 14.8704 0.00428533 8.98 0.00428533 2.7C-0.0357111 1.98 0.204267 1.3496 0.724221 0.8088C1.24417 0.2696 1.88412 0 2.64405 0H12.0032C12.7231 0 13.3431 0.2696 13.863 0.8088C14.383 1.3496 14.643 2 14.643 2.76C14.643 4.52 14.763 6.18 15.0029 7.74C15.2429 9.3 15.6229 10.78 16.1428 12.18C16.3428 12.62 16.3828 13.0696 16.2628 13.5288C16.1428 13.9896 15.9029 14.42 15.5429 14.82L9.54343 20.82C11.2633 24.34 13.7031 27.68 16.8628 30.84C20.0225 34 23.4222 36.52 27.0619 38.4L33.0613 32.4C33.4213 32.04 33.8413 31.8 34.3212 31.68C34.8012 31.56 35.2811 31.6 35.7611 31.8C37.241 32.28 38.7704 32.6496 40.3495 32.9088C41.9301 33.1696 43.5604 33.3 45.2402 33.3C46.0002 33.3 46.6505 33.58 47.1913 34.14C47.7304 34.7 48 35.38 48 36.18V45.36C48 46.08 47.74 46.7 47.2201 47.22C46.7001 47.74 46.0602 48 45.3002 48ZM43.2004 24C43.2004 18.64 41.3406 14.1 37.6209 10.38C33.9013 6.66 29.3617 4.8 24.0021 4.8V0C27.3218 0 30.4416 0.6296 33.3613 1.8888C36.281 3.1496 38.8208 4.86 40.9806 7.02C43.1404 9.18 44.8499 11.72 46.109 14.64C47.3697 17.56 48 20.68 48 24H43.2004ZM33.6013 24C33.6013 21.36 32.6614 19.1 30.7815 17.22C28.9017 15.34 26.6419 14.4 24.0021 14.4V9.6C28.0018 9.6 31.4015 11 34.2012 13.8C37.001 16.6 38.4009 20 38.4009 24H33.6013Z" fill="#02292C"/>
</svg>
