<svg width="48" height="48" viewBox="0 0 48 48" fill="none" xmlns="http://www.w3.org/2000/svg">
<path d="M21.3333 47.7582C21.0222 47.7582 20.7333 47.738 20.4667 47.6977C20.2 47.6574 19.9333 47.597 19.6667 47.5164C13.5778 45.7028 8.77778 42.398 5.26667 37.602C1.75556 32.806 0 27.4861 0 21.6423V10.2166C0 9.20907 0.322222 8.30227 0.966667 7.49622C1.61111 6.69018 2.44444 6.10579 3.46667 5.74307L19.4667 0.302267C20.0889 0.100756 20.7111 0 21.3333 0C21.9556 0 22.5778 0.100756 23.2 0.302267L39.2 5.74307C40.2222 6.10579 41.0556 6.69018 41.7 7.49622C42.3444 8.30227 42.6667 9.20907 42.6667 10.2166V21.6423C42.6667 22.0453 42.6556 22.4484 42.6333 22.8514C42.6111 23.2544 42.5778 23.6574 42.5333 24.0605C42.0889 23.9798 41.6667 23.9194 41.2667 23.8791C40.8667 23.8388 40.4444 23.8186 40 23.8186C36.3111 23.8186 33.1667 24.9975 30.5667 27.3552C27.9667 29.7128 26.6667 32.5642 26.6667 35.9093V46.1864C26.0889 46.4685 25.4889 46.7103 24.8667 46.9118L23 47.5164C22.7333 47.597 22.4667 47.6574 22.2 47.6977C21.9333 47.738 21.6444 47.7582 21.3333 47.7582ZM34.2667 48C33.6444 48 33.1111 47.7985 32.6667 47.3955C32.2222 46.9924 32 46.5088 32 45.9446V37.9647C32 37.4005 32.2222 36.9169 32.6667 36.5139C33.1111 36.1108 33.6444 35.9093 34.2667 35.9093H34.6667V33.4912C34.6667 32.1612 35.1889 31.0227 36.2333 30.0756C37.2778 29.1285 38.5333 28.6549 40 28.6549C41.4667 28.6549 42.7222 29.1285 43.7667 30.0756C44.8111 31.0227 45.3333 32.1612 45.3333 33.4912V35.9093H45.7333C46.3556 35.9093 46.8889 36.1108 47.3333 36.5139C47.7778 36.9169 48 37.4005 48 37.9647V45.9446C48 46.5088 47.7778 46.9924 47.3333 47.3955C46.8889 47.7985 46.3556 48 45.7333 48H34.2667ZM37.3333 35.9093H42.6667V33.4912C42.6667 32.806 42.4111 32.2317 41.9 31.7683C41.3889 31.3048 40.7556 31.073 40 31.073C39.2444 31.073 38.6111 31.3048 38.1 31.7683C37.5889 32.2317 37.3333 32.806 37.3333 33.4912V35.9093Z" fill="#02292C"/>
</svg>
