<svg width="24" height="20" viewBox="0 0 24 20" fill="none" xmlns="http://www.w3.org/2000/svg">
<path d="M1.33333 20C0.955556 20 0.638889 19.8333 0.383333 19.5C0.127778 19.1667 0 18.7536 0 18.2609V17.3913C0 16.8986 0.127778 16.4855 0.383333 16.1522C0.638889 15.8188 0.955556 15.6522 1.33333 15.6522H22.6667C23.0444 15.6522 23.3611 15.8188 23.6167 16.1522C23.8722 16.4855 24 16.8986 24 17.3913V18.2609C24 18.7536 23.8722 19.1667 23.6167 19.5C23.3611 19.8333 23.0444 20 22.6667 20H1.33333ZM1.33333 12.1739C0.955556 12.1739 0.638889 12.0072 0.383333 11.6739C0.127778 11.3406 0 10.9275 0 10.4348V9.56522C0 9.07246 0.127778 8.65942 0.383333 8.32609C0.638889 7.99275 0.955556 7.82609 1.33333 7.82609H22.6667C23.0444 7.82609 23.3611 7.99275 23.6167 8.32609C23.8722 8.65942 24 9.07246 24 9.56522V10.4348C24 10.9275 23.8722 11.3406 23.6167 11.6739C23.3611 12.0072 23.0444 12.1739 22.6667 12.1739H1.33333ZM1.33333 4.34783C0.955556 4.34783 0.638889 4.18116 0.383333 3.84783C0.127778 3.51449 0 3.10145 0 2.6087V1.73913C0 1.24638 0.127778 0.833333 0.383333 0.5C0.638889 0.166667 0.955556 0 1.33333 0H22.6667C23.0444 0 23.3611 0.166667 23.6167 0.5C23.8722 0.833333 24 1.24638 24 1.73913V2.6087C24 3.10145 23.8722 3.51449 23.6167 3.84783C23.3611 4.18116 23.0444 4.34783 22.6667 4.34783H1.33333Z" fill="#02292C"/>
</svg>
