<svg width="32" height="40" viewBox="0 0 32 40" fill="none" xmlns="http://www.w3.org/2000/svg">
<path d="M0 17.9V8.45C0 7.61667 0.241667 6.86667 0.725 6.2C1.20833 5.53333 1.83333 5.05 2.6 4.75L14.6 0.25C15.0667 0.0833333 15.5333 0 16 0C16.4667 0 16.9333 0.0833333 17.4 0.25L29.4 4.75C30.1667 5.05 30.7917 5.53333 31.275 6.2C31.7583 6.86667 32 7.61667 32 8.45V17.9C32 22.5667 30.6667 26.925 28 30.975C25.3333 35.025 21.75 37.8 17.25 39.3C17.05 39.3667 16.85 39.4167 16.65 39.45C16.45 39.4833 16.2333 39.5 16 39.5C15.7667 39.5 15.55 39.4833 15.35 39.45C15.15 39.4167 14.95 39.3667 14.75 39.3C10.25 37.8 6.66667 35.025 4 30.975C1.33333 26.925 0 22.5667 0 17.9ZM12 27.7H20C20.5667 27.7 21.0417 27.5083 21.425 27.125C21.8083 26.7417 22 26.2667 22 25.7V19.7C22 19.1333 21.8083 18.6583 21.425 18.275C21.0417 17.8917 20.5667 17.7 20 17.7V15.7C20 14.6 19.6083 13.6583 18.825 12.875C18.0417 12.0917 17.1 11.7 16 11.7C14.9 11.7 13.9583 12.0917 13.175 12.875C12.3917 13.6583 12 14.6 12 15.7V17.7C11.4333 17.7 10.9583 17.8917 10.575 18.275C10.1917 18.6583 10 19.1333 10 19.7V25.7C10 26.2667 10.1917 26.7417 10.575 27.125C10.9583 27.5083 11.4333 27.7 12 27.7ZM14 17.7V15.7C14 15.1333 14.1917 14.6583 14.575 14.275C14.9583 13.8917 15.4333 13.7 16 13.7C16.5667 13.7 17.0417 13.8917 17.425 14.275C17.8083 14.6583 18 15.1333 18 15.7V17.7H14Z" fill="#F5F5F5"/>
</svg>
