<svg width="41" height="36" viewBox="0 0 41 36" fill="none" xmlns="http://www.w3.org/2000/svg">
<path d="M28.975 14.8155C28.195 15.5955 26.895 15.5955 26.115 14.8155L17.175 5.89553L3.075 19.9755L1.755 18.7155C-0.585 16.3755 -0.585 12.5755 1.755 10.2355L10.235 1.75553C12.575 -0.584469 16.375 -0.584469 18.715 1.75553L28.975 11.9955C29.755 12.7755 29.755 14.0355 28.975 14.8155ZM30.375 10.5755C31.935 12.1355 31.935 14.6755 30.375 16.2355C27.835 18.7755 25.155 16.6755 24.715 16.2355L17.195 8.71553L6.055 19.8555C5.275 20.6355 5.275 21.8955 6.055 22.6755C6.835 23.4555 8.095 23.4555 8.895 22.6755L18.135 13.4355L19.555 14.8555L10.315 24.0955C9.535 24.8755 9.535 26.1355 10.315 26.9155C11.095 27.6955 12.355 27.6955 13.155 26.9155L22.395 17.6755L23.815 19.0955L14.575 28.3355C13.795 29.1155 13.795 30.3755 14.575 31.1555C15.355 31.9355 16.615 31.9355 17.395 31.1555L26.635 21.9155L28.055 23.3355L18.815 32.5755C18.035 33.3555 18.035 34.6155 18.815 35.3955C19.595 36.1755 20.855 36.1755 21.635 35.3955L38.275 18.7155C40.615 16.3755 40.615 12.5755 38.275 10.2355L29.795 1.75553C27.495 -0.544469 23.775 -0.584469 21.435 1.63553L30.375 10.5755Z" fill="#F5F5F5"/>
</svg>
